<svg width="100" height="100" viewBox="0 0 100 100" fill="none" xmlns="http://www.w3.org/2000/svg">
<g clip-path="url(#clip0)">
<path d="M20.4276 15.036C16.6617 16.8518 12.5517 19.1292 8.38074 19.6968C7.17224 19.8608 5.94773 19.9035 4.72931 19.8417C2.26883 19.7166 -0.805052 19.9386 0.192873 23.2498C0.841372 25.402 3.08899 26.9493 4.95438 27.8862C8.45703 29.6463 12.7104 30.2337 16.519 29.2381C18.4264 28.7399 20.6923 28.1318 22.3227 26.9806C22.8491 26.6082 23.6144 26.2512 24.2201 25.8705C24.8084 25.5012 25.4508 24.5956 26.0962 24.4407C24.8496 20.9449 23.7181 17.3973 22.5333 13.8771C22.5638 13.9671 21.691 14.4272 20.4276 15.036Z" fill="#FF5F00"/>
<path d="M26.0964 24.4408C25.4524 24.5957 24.8093 25.5013 24.221 25.8713C23.6145 26.2505 22.8493 26.6083 22.3236 26.9799C20.6925 28.1327 18.4273 28.7408 16.5199 29.239C12.7129 30.2331 8.45948 29.6464 4.95454 27.887C3.08915 26.9494 0.842292 25.4014 0.193793 23.2506C-0.0633174 22.3969 -0.0495844 21.7484 0.155646 21.2586C1.12916 22.297 2.42234 23.1042 3.56904 23.6802C7.07398 25.4395 11.3266 26.0277 15.1344 25.0321C17.0426 24.5339 19.3077 23.9251 20.9381 22.7746C21.4638 22.4015 22.229 22.046 22.8356 21.6637C23.4062 21.3044 24.028 20.4407 24.6552 20.25C25.1244 21.6523 25.6004 23.0492 26.0964 24.4408Z" fill="#F15300"/>
<path d="M98.0186 45.6665C97.4045 43.6478 94.9036 42.942 93.3067 44.3222C91.6428 45.7611 89.8857 47.0932 88.0508 48.3055C80.6717 53.183 70.8916 56.6498 62.0109 54.5586C53.4584 52.5444 48.4375 45.639 47.0505 37.2635C45.2728 26.5304 50.3853 4.93086 35.9115 0.736981C30.4764 -0.837726 23.0064 1.0681 19.619 5.84028C16.2735 10.5545 16.6794 17.6376 20.2072 22.0962C23.3467 26.0643 29.5563 28.0624 31.9481 32.4554C36.0916 40.065 28.846 47.0154 25.6409 53.4851C24.0677 56.6605 22.747 59.9739 21.8162 63.3957C19.7365 71.0419 19.2505 78.331 23.2071 85.6201C31.6635 101.199 54.6532 100.644 69.6907 99.0807C78.8788 98.1255 87.5557 93.502 93.1946 86.1404C98.7228 78.9238 99.9496 70.9908 99.9977 62.281C100.029 56.7718 99.6429 51.0055 98.0186 45.6665Z" fill="#F6AC39"/>
<path d="M99.9985 62.2811C99.9504 70.9908 98.7236 78.9231 93.1946 86.1405C87.5557 93.5021 78.8788 98.1247 69.6915 99.0807C57.3151 100.366 39.5546 100.971 28.9413 92.4622C39.621 98.0385 54.5815 97.4358 65.416 96.3097C74.6056 95.3553 83.2802 90.7326 88.9214 83.371C94.4481 76.1536 95.6749 68.219 95.723 59.5101C95.7535 54.3328 95.4117 48.9266 94.0239 43.8645C95.5688 43.1656 97.4899 43.9301 98.0186 45.6673C99.6429 51.0056 100.028 56.7727 99.9985 62.2811Z" fill="#F39D0A"/>
<path d="M84.3574 53.7469L60.6728 45.7902C52.1454 42.9253 42.91 47.5152 40.0452 56.0433C37.1803 64.5707 41.7702 73.8061 50.2983 76.6709C56.1768 78.6461 62.3909 77.0768 66.6237 73.1186V73.1194L85.0548 57.335C86.2945 56.2737 85.9039 54.2664 84.3574 53.7469Z" fill="#FF5F00"/>
<path d="M85.0555 57.3349L66.6244 73.1194C62.3917 77.0775 56.176 78.6453 50.2983 76.6716C47.9652 75.8881 45.9267 74.6254 44.2535 73.0324C44.957 73.3902 45.6955 73.7015 46.4668 73.9601C52.3468 75.9346 58.5602 74.366 62.7937 70.4079L81.224 54.6242C81.752 54.1725 81.9855 53.5454 81.9549 52.9388L84.3567 53.746C85.9054 54.2664 86.2945 56.2744 85.0555 57.3349Z" fill="#F15300"/>
<path d="M30.6884 10.7513C30.6884 12.1414 29.5616 13.269 28.1715 13.269C26.7814 13.269 25.6545 12.1414 25.6545 10.7513C25.6545 9.36124 26.7814 8.23438 28.1715 8.23438C29.5616 8.23438 30.6884 9.36124 30.6884 10.7513Z" fill="#484A4C"/>
<path d="M77.7786 63.5658L74.9534 65.9836C69.0956 64.5111 62.6289 58.3526 62.3199 58.0551C61.7615 57.5172 61.7439 56.6276 62.2818 56.0669C62.8181 55.5069 63.7092 55.4886 64.2677 56.0272C64.3043 56.0608 66.3078 57.975 68.9651 59.8503C72.335 62.2322 75.2167 63.4895 77.2987 63.4895H77.3254C77.4841 63.4895 77.6359 63.5155 77.7786 63.5658Z" fill="#DB4C05"/>
<path d="M69.4794 70.6749L66.8404 72.934C63.4171 71.7491 59.9182 68.7729 57.4043 66.259C56.8558 65.7105 56.8558 64.8209 57.4043 64.2708C57.9544 63.7222 58.844 63.7222 59.3926 64.2708C63.2179 68.0962 66.7061 70.3514 69.2146 70.6207C69.3062 70.6307 69.3947 70.6482 69.4794 70.6749Z" fill="#DB4C05"/>
</g>
<defs>
<clipPath id="clip0">
<rect width="100" height="100" fill="white"/>
</clipPath>
</defs>
</svg>
